<svg xmlns="http://www.w3.org/2000/svg" width="100px" height="100px" viewBox="0 0 5000 5000" preserveAspectRatio="xMidYMid meet"><g fill="#010202"><path d="M0 2500 l0-2500 2500 0 2500 0 0 2500 0 2500-2500 0-2500 0 0-2500z"/></g><g fill="#18b09e"><path d="M0 3755 l0-1245 1010 0 1011 0 3-12 c4-13 10-52 46-298 12-80 24-158 27-173 l5-28-37-62 c-21-34-58-88-82-120-23-32-53-80-65-106 l-21-47-32-21-32-21-49-84 c-51-88-127-193-148-205-14-9-99-137-109-165 l-6-16 35-69 c19-37 43-84 54-103 10-19 24-48 32-65 7-16 33-57 58-90 25-33 75-107 112-165 72-113 99-147 138-173 l24-17 27 0 27 0 39-53 c22-28 50-72 61-97 12-25 45-76 72-113 l51-68 34-15 c19-8 44-14 56-14 l21 0 62 32 c91 48 126 74 172 123 l42 45 29 0 29 0 69 36 70 37 50 40 c60 49 68 61 75 106 l5 34 65 40 c36 22 67 42 70 46 3 3 33 30 66 58 l61 53 7 40 6 40 30 13 30 12 74 84 75 84 6 29 7 28-7 30-7 31-56 61-57 61-1 66-2 66-21 55-21 55 6 31 6 32-12 58 c-12 58-42 161-63 218 l-11 30-41 46 c-22 26-48 60-57 76-10 16-27 41-39 55 l-21 27-2 208-1 209 973 3 972 2 0 1245 0 1245-2500 0-2500 0 0-1245z m1592 644 l53-12 25-16 c35-23 58-50 80-96 l20-40 0-59 0-60-22-44-21-45-43-30-43-30 29-33 29-33 10-38 c15-52 14-77-5-121 l-15-37-31-32-31-33-47-15-46-15-130-3-129-2-3 73-3 72 116 0 116 0 28 15 29 14 6 16 c3 9 6 28 6 42 l0 25-29 29-29 29-121 0-121 0 0 245 0 245 135 0 134 0 53-11z m588-234 l0-245-80 0-80 0 0 245 0 245 80 0 80 0 0-245z m400 70 l0-175 135 0 135 0 0 175 0 175 80 0 80 0 0-377 0-378-6-22-6-23-74 0-74 0 0 150 0 150-210 0-210 0 0 250 0 250 75 0 75 0 0-175z m867 164 c15-5 45-22 65-36 l37-25 22-44 21-44 0-61 0-60-29-47-28-46-118-104-117-104 0-27 0-27 12-12 12-12 36 0 36 0 42 36 43 36 47-43 c26-23 49-44 51-46 3-2-11-20-30-39 l-34-36-50-24-50-24-60 0-60 0-39 23-39 22-30 37-30 37-5 49-4 49 21 48 22 49 81 75 c45 42 104 97 130 122 l48 46 0 25 0 26-18 22-17 21-43 6-43 6-48-50-49-51-46 28 c-26 14-52 32-58 38 l-11 11 26 40 26 40 36 28 c19 15 49 33 67 40 l33 11 57 1 57 1 28-11z m-1127-722 l0-73-220-3-220-3 0 76 0 76 220 0 220 0 0-73z m260-8 l0-71-16 6 c-9 3-42 6-74 6 l-58 0-4 61 c-1 33-1 63 1 65 2 2 37 4 78 4 l73 0 0-71z m-2110-369 c31-85 76-210 100-277 l44-123 5 6 c3 3 26 63 51 132 l45 127 78 3 77 3 0-8 c0-7-105-309-164-473 l-13-35-74 0-73 0-19 50 c-27 71-253 705-262 733 l-7 23 78-3 79-3 55-155z m481 85 l-26-75-77 0 c-43 0-78 2-78 4 0 3 12 37 26 75 l26 71 78 0 77 0-26-75z m665 61 l52-14 48-26 c27-15 67-42 88-61 l39-33-50-53-51-53-42 37-43 37-56 21-56 21-60-7-60-6-42-20-42-20-35-39-35-39-15-52 c-20-66-20-102-1-165 l14-49 30-35 29-36 53-29 54-29 65 0 65 0 48 22 c27 12 66 36 88 53 l40 31 48-43 c27-24 49-49 50-56 l1-12-37-31-38-31-61-29-62-30-75-12-76-11-71 12-70 13-73 47-73 48-32 44-32 43-20 54-20 54-2 66 c-1 87 9 145 37 209 l23 52 42 45 42 45 43 26 44 25 53 14 53 15 65 0 65 1 51-14z m644-231 l0-246-77 3-78 3-3 243-2 242 80 0 80 0 0-245z m690 169 l0-76-42 2 c-24 1-55 1-70 1 l-28-1-2-167-3-168-72-3-73-3 0 171 0 170-75 0-75 0 0 75 0 75 220 0 220 0 0-76z m663 46 l57-21 55-50 55-51 30-61 30-62 11-62 11-61-11-68-10-67-26-54-27-53-48-50-49-50-62-30-62-29-51-6-51-7-65 12-65 12-63 30-63 31-41 46-40 46-24 47-24 47-12 71-12 70 11 64 11 65 24 47 23 47 43 48 43 48 35 22 c20 12 61 30 92 40 l57 19 80-4 81-5 57-21z m509-232 l3-262 68 104 c37 58 114 176 170 262 l102 158 73 0 72 0-2-242-3-243-72-3-73-3 0 108 0 108-42-65 c-23-36-102-156-175-268 l-133-203-68 3-67 3-3 403-2 402 75 0 75 0 2-262z m-1714-470 l-3-73-222-3-223-2 0 75 0 75 225 0 226 0-3-72z m552 8 l0-64-14-11-14-11-208 2-209 3-3 73-3 72 226 0 225 0 0-64z m1655-11 l0-70-77-3-78-3 0 76 0 76 78-3 77-3 0-70z m-1952-242 l5-28-9-95 c-19-181-38-330-44-340 l-6-10-39 0-39 0-10-18 c-5-9-12-34-16-54 l-7-36 72-38 72-38 5-12 5-13-69-98 c-37-54-81-119-98-145-27-42-107-156-190-271 l-30-41-60-21 c-33-11-73-28-90-37-16-9-48-21-71-27 l-41-11-11-25-11-25 6-17 c4-10 26-37 50-61 l43-44 0-18 c0-10-4-30-9-43 l-10-25 15-20 14-20 30-10 30-11 32 27 c17 15 52 48 76 75 l45 47 22 0 c12 0 39-7 58-15 l36-15 34 0 c19 0 48-5 65-11 l32-11 10-40 11-39-3-32-3-31-85-34 c-47-18-115-46-151-63-36-16-73-29-81-29-9 0-60-21-113-46 l-97-46-22 6-22 5-47 65 c-26 35-47 66-47 69 0 8-54 89-112 168 l-48 66-24 54 c-14 30-38 74-55 98 l-30 45 17 30 c9 16 36 50 60 75 24 25 51 58 60 74 9 15 20 27 24 27 4 0 17 19 29 43 12 23 37 68 57 100 l36 58 28 15 29 15 28 57 c15 31 62 109 105 172 l76 114 11 41 11 40-6 40 c-5 33-43 290-63 428 l-6 37 266 0 265 0 5-27z m245 17 l42 0 1-122 c0-68 4-171 8-230 l7-106 30-43 c16-23 43-63 60-88 17-25 41-55 53-65 l21-19 25-79 25-79 10-72 c6-40 15-94 21-121 5-27 7-51 5-54-3-2-44 30-90 73 l-85 77-35 1-34 1-68-61 c-38-33-78-71-89-83-25-27-66-49-125-66-25-7-72-22-104-33-33-12-70-21-83-21 l-23 0 0 9 c0 4 38 49 85 98 l85 90 35 76 c19 42 49 118 66 169 l32 93 39 43 39 43-5 17 c-2 9-7 26-10 38 l-6 21-28 14 c-15 8-30 18-34 24 l-7 10 0 130 1 130-36 89 c-20 49-36 94-36 99 l0 10 83-6 c45-4 101-7 125-7z m219-1154 l42-28 78-90 c43-49 86-100 97-113 l19-23-54-65-54-66-17 0-16-1-4 9 c-5 12-57 78-103 131-23 25-75 89-118 142 l-77 97 0 14 0 14 42 36 42 36 40-32 c23-18 60-45 83-61z m-280-113 c19-20 53-62 76-92 22-31 66-87 97-126 63-78 104-139 114-172 l7-22-22-18 c-12-10-46-39-75-65-29-26-62-52-74-58 l-22-12-10 10 c-10 10-40 57-125 196-87 143-98 159-150 227 l-43 55 0 16 0 17 53 24 c104 48 122 56 131 56 5 1 24-16 43-36z m-596-133 l8-35-32-32-31-33-15 0-16 0-22 39-23 40 28 18 c53 35 67 42 82 40 l14-2 7-35z m523-377 c79-122 86-136 86-165 l0-24-47-35 c-27-20-72-48-101-63 l-54-27-20 3-19 3-32 56 c-18 31-45 77-60 102 l-29 46 7 11 c3 5 32 22 63 37 31 14 69 34 83 44 l27 19 7 37 c7 39 13 53 21 53 2 0 33-44 68-97z m-372-175 c13-18 45-67 71-109 l47-77 0-15 0-15-34-29 c-18-17-59-45-90-63 l-57-32-21 18 c-40 37-178 257-168 268 3 2 46 22 95 44 l90 40 21 1 22 1 24-32z"/><path d="M1430 4159 l0-102 63 5 64 5 25 17 26 17 12 29 12 29-12 36-12 35-28 15-29 15-61 0-60 0 0-101z"/><path d="M3405 3311 c-16-4-44-15-61-24 l-32-16-40-46-40-45-11-45-11-44 0-48 0-48 24-50 23-50 37-33 37-32 36-15 35-15 61 0 61 0 42 21 43 20 32 37 c17 19 40 54 50 76 l19 41 0 65 0 65-19 40-18 40-38 37 c-20 20-51 43-69 52 l-31 15-50 5-50 5-30-8z"/></g><g fill="#f2f2f2"><path d="M2033 2468 c22-193 35-285 64-441 l5-28-37-62 c-21-34-58-88-82-120-23-32-53-80-65-106 l-21-47-32-21-32-21-49-84 c-51-88-127-193-148-205-14-9-99-137-109-165 l-6-16 35-69 c19-37 43-84 54-103 10-19 24-48 32-65 7-16 33-57 58-90 25-33 75-107 112-165 72-113 99-147 138-173 l24-17 27 0 27 0 39-52 c22-29 50-73 61-98 12-25 45-76 72-113 l51-68 34-15 c19-8 44-14 56-14 l21 0 62 32 c91 48 126 74 172 123 l42 45 29 0 29 0 69 36 70 37 50 40 c60 49 68 61 75 106 l5 34 65 40 c36 22 67 42 70 46 3 3 33 30 66 58 l61 53 7 40 6 40 30 13 30 12 74 84 75 84 6 29 7 28-7 30-7 31-56 61-57 61-1 66-2 66-21 55-21 55 6 31 6 32-12 58 c-12 58-42 161-63 218 l-11 30-41 46 c-22 26-48 60-57 76-10 16-28 42-40 57 l-23 29 3 96 c2 53 0 148-3 210 l-7 112-43 0-42 0-7-31 c-8-41-7-196 3-331 l7-106 30-43 c16-23 43-63 60-88 17-25 41-55 53-65 l21-19 25-79 25-79 10-72 c6-40 15-94 21-121 5-27 7-51 5-54-3-2-44 30-90 73 l-85 77-35 1-34 1-68-61 c-38-33-78-71-89-83-25-27-66-49-125-66-25-7-72-22-104-33-33-12-70-21-83-21 l-23 0 0 9 c0 4 38 49 85 98 l85 90 35 76 c19 42 49 118 66 169 l32 93 39 43 39 43-5 19 c-4 11-8 28-11 38 l-5 19-28 14 c-15 8-30 18-34 24 l-7 10 0 130 1 130-38 94-39 94-11 4-11 4-12-128 c-18-182-39-352-46-363 l-6-10-39 0-39 0-10-18 c-5-9-12-34-16-54 l-7-36 72-38 72-38 5-12 5-13-69-98 c-37-54-81-119-98-145-27-42-107-156-190-271 l-30-41-60-21 c-33-11-73-28-90-37-16-9-48-21-71-27 l-41-11-11-25-11-25 6-17 c4-10 26-37 50-61 l43-44 0-18 c0-10-4-30-9-43 l-10-25 15-20 14-20 30-10 30-11 32 27 c17 15 52 48 76 74 l45 48 22 0 c12 0 39-7 58-15 l36-15 34 0 c19 0 48-5 65-11 l32-11 10-40 11-39-3-32-3-31-85-34 c-47-18-115-46-151-63-36-16-73-29-81-29-9 0-60-21-113-46 l-97-46-22 6-22 5-47 65 c-26 35-47 66-47 69 0 8-54 89-112 168 l-48 66-24 54 c-14 30-38 74-55 98 l-30 45 17 30 c9 16 36 50 60 75 24 25 51 58 60 74 9 15 20 27 24 27 4 0 17 19 29 43 12 23 37 68 57 100 l36 58 28 15 29 15 28 57 c15 31 62 109 105 172 l76 114 11 41 11 40-6 40 c-41 288-56 386-63 420 l-9 40-48 3-48 3 5-43z m1094-1122 l42-28 78-90 c43-49 86-100 97-113 l19-23-54-65-54-66-17 0-16-1-4 9 c-5 12-57 78-103 131-23 25-75 89-118 142 l-77 97 0 14 0 14 42 36 42 36 40-32 c23-18 60-45 83-61z m-280-113 c19-20 53-62 76-92 22-31 66-87 97-126 63-78 104-139 114-172 l7-22-22-18 c-12-10-46-39-75-65-29-26-62-52-74-58 l-22-12-10 10 c-10 10-40 57-125 196-87 143-98 159-150 227 l-43 55 0 16 0 17 53 24 c104 48 122 56 131 56 5 1 24-16 43-36z m-596-133 l8-35-32-32-31-33-15 0-16 0-22 39-23 40 28 18 c53 35 67 42 82 40 l14-2 7-35z m523-377 c79-122 86-136 86-165 l0-24-47-35 c-27-20-72-48-101-63 l-54-27-20 3-19 3-32 56 c-18 31-45 77-60 102 l-29 46 7 11 c3 5 32 22 63 37 31 14 69 34 83 44 l27 19 7 37 c7 39 13 53 21 53 2 0 33-44 68-97z m-372-175 c13-18 45-67 71-109 l47-77 0-15 0-15-34-29 c-18-17-59-45-90-63 l-57-32-21 18 c-40 37-178 257-168 268 3 2 46 22 95 44 l90 40 21 1 22 1 24-32z"/></g></svg>