<?xml version="1.0" encoding="utf-8"?>
<!-- Generator: Adobe Illustrator 20.1.0, SVG Export Plug-In . SVG Version: 6.00 Build 0)  -->
<svg version="1.1" id="Layer_1" xmlns="http://www.w3.org/2000/svg" xmlns:xlink="http://www.w3.org/1999/xlink" x="0px" y="0px"
	 viewBox="0 0 500 500" enable-background="new 0 0 500 500" xml:space="preserve">
<g>
	<g>
		<g>
			<path fill="#B2D235" d="M194.5,81.4h143.7v32.8h-21.4c-8.5,0-14.4,3.5-14.4,10.9c0,3,2.5,9,4.5,13.9l44.8,105.5h1l41.3-101
				c2.5-6,4.5-11.4,4.5-17.4c0-6.5-7-11.9-15.9-11.9h-21.4V81.4H481v32.8c-17.9,0-32.8,3.5-40.8,22.4l-80.6,191.5
				c-27.4,65.2-53.2,91.5-99.5,91.5c-34.3,0-66.2-20.9-66.2-60.2c0-24.4,13.4-43.8,38.3-43.8c17.9,0,34.3,12.9,34.3,31.3
				c0,15.4-10.9,28.4-24.4,28.4c-4,0-9-0.5-12.9-0.5c5.5,9.5,14.9,11.9,24.4,11.9c29.8,0,44.3-15.4,53.7-36.3l16.4-36.3l-84.1-180.6
				c-6-12.9-19.9-19.4-45.3-19.4V81.4z"/>
		</g>
		<g>
			<g>
				<path fill="#185577" d="M22.2,155.3h10.5v20.8L52,155.3h12.6l-19.4,20.2l20.3,27.4H52.9l-14.8-20.3l-5.5,5.7v14.5H22.2V155.3z"
					/>
				<path fill="#185577" d="M72.3,155.3h10.5v47.6H72.3V155.3z"/>
				<path fill="#185577" d="M94,155.3h9.7l22.3,29.3v-29.3h10.3v47.6h-8.9l-23-30.2v30.2H94V155.3z"/>
				<path fill="#185577" d="M142.2,179.2v-0.1c0-13.5,10.5-24.6,24.9-24.6c8.6,0,13.7,2.3,18.7,6.5l-6.6,8
					c-3.7-3.1-6.9-4.8-12.4-4.8c-7.6,0-13.7,6.7-13.7,14.8v0.1c0,8.7,6,15.1,14.4,15.1c3.8,0,7.2-1,9.9-2.9v-6.8h-10.5v-9h20.7v20.7
					c-4.9,4.1-11.6,7.5-20.3,7.5C152.4,203.7,142.2,193.3,142.2,179.2z"/>
				<path fill="#185577" d="M192.6,195.9l6.2-7.4c4.3,3.5,8.8,5.8,14.2,5.8c4.3,0,6.9-1.7,6.9-4.5v-0.1c0-2.7-1.6-4-9.6-6
					c-9.6-2.4-15.8-5.1-15.8-14.5V169c0-8.6,6.9-14.3,16.7-14.3c6.9,0,12.8,2.2,17.7,6l-5.4,7.9c-4.2-2.9-8.4-4.7-12.4-4.7
					c-4,0-6.1,1.8-6.1,4.1v0.1c0,3.1,2,4.1,10.3,6.3c9.7,2.5,15.1,6,15.1,14.3v0.1c0,9.4-7.2,14.8-17.5,14.8
					C205.6,203.6,198.3,201,192.6,195.9z"/>
			</g>
			<g>
				<path fill="#185577" d="M22.2,212.8h36.1c8.9,0,15.9,2.4,20.3,6.9c3.6,3.5,5.3,7.9,5.3,13.2v0.2c0,8.8-4.7,13.6-10.2,16.8
					c9,3.4,14.5,8.7,14.5,19.1v0.2c0,14.2-11.5,21.3-29.1,21.3H22.2V212.8z M54.6,244.2c7.5,0,12.3-2.4,12.3-8.2v-0.2
					c0-5.1-4-8-11.2-8H38.9v16.4H54.6z M59.2,275.5c7.5,0,12.1-2.7,12.1-8.4v-0.2c0-5.2-3.9-8.4-12.6-8.4H38.9v17.1H59.2z"/>
				<path fill="#185577" d="M120.6,212.3h15.8l33.3,78.2h-17.9l-7.1-17.4h-32.8l-7.1,17.4H87.3L120.6,212.3z M138.6,258l-10.3-25.2
					L118,258H138.6z"/>
				<path fill="#185577" d="M183.5,259.8l-29.8-47h20l18.5,31.2l18.9-31.2h19.4l-29.8,46.7v31h-17.1V259.8z"/>
			</g>
		</g>
	</g>
	<path fill="#EA0B8C" d="M236.4,197.8c0,0,26.5-0.5,51,2c0,0,2.7,0.8,4.1-4.9c0,0,3-16.7,15-11c0,0-5.6,2.4-3.5,12.8
		c0,0,18.2-12.3,29.9-17.4c0,0-0.2,35.6-24.6,48.9c0,0-1.9,1.2-1.7,6.2l0.7,14.7c0,0-5.4,11.1-15.9,10.8c0,0-4.4,0-14.2-4.7
		l-3.5-1.7c0,0,9.3-10,9.3-21.4C282.9,232.2,244.4,230.9,236.4,197.8z"/>
</g>
</svg>
